<svg xmlns="http://www.w3.org/2000/svg" xmlns:xlink="http://www.w3.org/1999/xlink" width="320" height="1024" viewBox="0 0 320 1024"><svg data-prefix="fas" data-icon="angle-down" class="svg-inline--fa fa-angle-down fa-w-10" viewBox="0 0 320 512" width="320" height="512" id="angle-down-solid" y="0"><path fill="currentColor" d="M143 352.3L7 216.3c-9.4-9.4-9.4-24.6 0-33.9l22.6-22.6c9.4-9.4 24.6-9.4 33.9 0l96.4 96.4 96.4-96.4c9.4-9.4 24.6-9.4 33.9 0l22.6 22.6c9.4 9.4 9.4 24.6 0 33.9l-136 136c-9.2 9.4-24.4 9.4-33.8 0z"></path></svg><svg data-prefix="fas" data-icon="caret-down" class="svg-inline--fa fa-caret-down fa-w-10" viewBox="0 0 320 512" width="320" height="512" id="caret-down-solid" y="512"><path fill="currentColor" d="M31.3 192h257.3c17.8 0 26.7 21.5 14.1 34.1L174.1 354.8c-7.8 7.8-20.5 7.8-28.3 0L17.2 226.1C4.6 213.5 13.5 192 31.3 192z"></path></svg></svg>